<?xml version="1.0" encoding="UTF-8"?>
<svg width="8px" height="37px" viewBox="0 0 8 37" version="1.1" xmlns="http://www.w3.org/2000/svg" xmlns:xlink="http://www.w3.org/1999/xlink">
    <!-- Generator: Sketch 42 (36781) - http://www.bohemiancoding.com/sketch -->
    <title>!</title>
    <desc>Created with Sketch.</desc>
    <defs></defs>
    <g id="Embed" stroke="none" stroke-width="1" fill="none" fill-rule="evenodd">
        <g id="Form" transform="translate(-323.000000, -371.000000)" fill="#FFFFFF">
            <g id="Container-Copy">
                <g id="Hang-on-a-minute!" transform="translate(25.000000, 359.000000)">
                    <path d="M302.025,41.1 C300.125,41.1 298.575,42.7 298.575,44.55 C298.575,46.5 300.125,48.15 302.025,48.15 C304.025,48.15 305.625,46.5 305.625,44.55 C305.625,42.7 304.025,41.1 302.025,41.1 Z M305.225,15.65 C305.275,13.8 303.825,12.7 302.125,12.7 C300.375,12.7 298.925,13.8 298.975,15.65 L299.525,34.45 C299.575,35.95 300.675,36.8 302.075,36.8 C303.425,36.8 304.525,35.95 304.575,34.45 L305.225,15.65 Z" id="!"></path>
                </g>
            </g>
        </g>
    </g>
</svg>