<?xml version="1.0" encoding="UTF-8"?>
<svg width="90px" height="91px" viewBox="0 0 90 91" version="1.1" xmlns="http://www.w3.org/2000/svg" xmlns:xlink="http://www.w3.org/1999/xlink">
    <!-- Generator: Sketch 42 (36781) - http://www.bohemiancoding.com/sketch -->
    <title>Group 3</title>
    <desc>Created with Sketch.</desc>
    <defs></defs>
    <g id="Website" stroke="none" stroke-width="1" fill="none" fill-rule="evenodd">
        <g id="Artboard" transform="translate(-516.000000, -616.000000)">
            <g id="Container">
                <g id="How?" transform="translate(194.000000, 515.000000)">
                    <g id="2" transform="translate(267.000000, 101.000000)">
                        <g id="Group-3" transform="translate(55.000000, 0.000000)">
                            <rect id="Rectangle" fill="#FFFFFF" opacity="0.5" x="0.0704225352" y="0" width="75.4929577" height="80" rx="3"></rect>
                            <g id="server" transform="translate(17.056338, 13.000000)" fill="#681348">
                                <g id="Group-4-Copy-2" transform="translate(0.000000, 35.000000)">
                                    <path d="M43.4084507,10.2307692 L43.4084507,1.46153846 C43.4084507,6.30465088 33.691138,10.2307692 21.7042254,10.2307692 C9.71731268,10.2307692 0,6.30465088 0,1.46153846 L0,10.2307692 C0,15.0738817 9.71731268,19 21.7042254,19 L21.7042254,19 C33.691138,19 43.4084507,15.0738817 43.4084507,10.2307692" id="Oval-2"></path>
                                    <path d="M0.641566861,0.663394046 C0.639432303,0.685737665 0.638359569,0.70819606 0.638359569,0.730769231 C0.638359569,5.17028895 9.92696728,8.76923077 21.3850456,8.76923077 C32.0340761,8.76923077 40.8091897,5.66058383 41.9953076,1.65764076 C38.8830773,4.96076263 30.9720047,7.30769231 21.7042254,7.30769231 C11.5309686,7.30769231 2.99247428,4.47976192 0.641566861,0.663394046 Z" id="Combined-Shape"></path>
                                </g>
                                <g id="Group-4-Copy-3" transform="translate(0.000000, 21.000000)">
                                    <path d="M43.4084507,10.2307692 L43.4084507,1.46153846 C43.4084507,6.30465088 33.691138,10.2307692 21.7042254,10.2307692 C9.71731268,10.2307692 0,6.30465088 0,1.46153846 L0,10.2307692 C0,15.0738817 9.71731268,19 21.7042254,19 L21.7042254,19 C33.691138,19 43.4084507,15.0738817 43.4084507,10.2307692" id="Oval-2"></path>
                                    <path d="M0.641566861,0.663394046 C0.639432303,0.685737665 0.638359569,0.70819606 0.638359569,0.730769231 C0.638359569,5.17028895 9.92696728,8.76923077 21.3850456,8.76923077 C32.0340761,8.76923077 40.8091897,5.66058383 41.9953076,1.65764076 C38.8830773,4.96076263 30.9720047,7.30769231 21.7042254,7.30769231 C11.5309686,7.30769231 2.99247428,4.47976192 0.641566861,0.663394046 Z" id="Combined-Shape"></path>
                                </g>
                                <g id="Group-4-Copy-4" transform="translate(0.000000, 7.000000)">
                                    <path d="M43.4084507,10.2307692 L43.4084507,1.46153846 C43.4084507,6.30465088 33.691138,10.2307692 21.7042254,10.2307692 C9.71731268,10.2307692 0,6.30465088 0,1.46153846 L0,10.2307692 C0,15.0738817 9.71731268,19 21.7042254,19 L21.7042254,19 C33.691138,19 43.4084507,15.0738817 43.4084507,10.2307692" id="Oval-2"></path>
                                    <path d="M0.641566861,0.663394046 C0.639432303,0.685737665 0.638359569,0.70819606 0.638359569,0.730769231 C0.638359569,5.17028895 9.92696728,8.76923077 21.3850456,8.76923077 C32.0340761,8.76923077 40.8091897,5.66058383 41.9953076,1.65764076 C38.8830773,4.96076263 30.9720047,7.30769231 21.7042254,7.30769231 C11.5309686,7.30769231 2.99247428,4.47976192 0.641566861,0.663394046 Z" id="Combined-Shape"></path>
                                </g>
                                <ellipse id="Oval-2" cx="21.7042254" cy="8" rx="20.7605634" ry="8"></ellipse>
                            </g>
                            <g id="Group" transform="translate(61.000000, 61.000000)">
                                <ellipse id="Oval" fill="#C04848" cx="14.1549296" cy="15" rx="14.1549296" ry="15"></ellipse>
                                <path d="M16.2268289,11.3536303 C16.2379294,10.7087392 16.256959,10.0641125 16.2683239,9.41948578 C16.2685882,9.39622741 16.2691168,9.37296905 16.2691168,9.34997498 C16.2685882,9.32143063 16.2677953,9.29288627 16.2662095,9.26460621 C16.2564304,9.11236964 16.2270932,8.96224747 16.1763476,8.81820419 C16.0777639,8.53963241 15.9035904,8.29039788 15.6818431,8.09560908 C15.5322495,7.96478077 15.361512,7.85853234 15.1783523,7.78162115 C15.0364234,7.72215374 14.8873585,7.6801301 14.7353862,7.65687174 C14.6634967,7.64577116 14.5910786,7.63916367 14.5183962,7.63572777 C14.23586,7.62674159 13.9530594,7.62304139 13.6702588,7.62066269 C13.5264798,7.62039839 13.3827008,7.62409859 13.2389219,7.63414197 C13.1345235,7.64127806 13.0303895,7.65185005 12.9265197,7.66585793 C12.7425672,7.69070209 12.5594076,7.72691113 12.3812697,7.78056395 C12.2491199,7.82047319 12.1190845,7.86989722 11.9975066,7.93544352 C11.8505561,8.0147334 11.7073057,8.12098184 11.6303945,8.27295411 C11.574363,8.38369564 11.5656411,8.57108406 11.5524261,8.63134437 C11.5524261,8.63213727 11.5526904,8.63319447 11.5524261,8.63398736 C11.5082881,8.81714699 11.3798385,9.29024327 11.1750063,9.49190387 C10.9759887,9.68801417 10.7111605,9.82703576 10.3178827,9.84447954 C10.0979854,9.82967876 9.71157939,9.74060979 9.46683796,9.47868889 C9.13593486,9.12452742 9.11029779,8.69979797 9.1068619,8.56315507 C9.1052761,8.49602297 9.11320509,8.32977852 9.12509857,8.2132224 C9.14835694,7.98486754 9.19460937,7.75889139 9.26517736,7.54057992 C9.33970985,7.30958206 9.44146519,7.0875704 9.568329,6.88062381 C9.66294826,6.72600854 9.7713111,6.58011516 9.89130312,6.44426517 C9.97297169,6.35176031 10.0601906,6.26401284 10.1519025,6.18102277 C10.2288137,6.11151197 10.3088965,6.04543707 10.3918866,5.98306237 C10.9596021,5.55489701 11.6414951,5.3014337 12.3336957,5.16109061 C12.4602952,5.13545355 12.5874233,5.11351668 12.7153444,5.09501571 C12.874717,5.07175734 13.0348826,5.05378497 13.1953124,5.04083429 C13.3869296,5.02497631 13.5788111,5.01651873 13.770957,5.01308283 L14.4977809,5.00039645 C14.5530195,4.99986785 14.5530195,4.99986785 14.6082581,5.00039645 C14.778467,5.00356804 14.9481474,5.01387573 15.1172991,5.0347554 C15.4659103,5.07783623 15.8094998,5.16161921 16.1390814,5.28346132 C16.6639804,5.47798583 17.1521418,5.77003689 17.5715852,6.14137783 C18.1292574,6.63482518 18.5611229,7.26597263 18.8143219,7.96689517 C18.9226848,8.26740382 18.9982745,8.57954165 19.0395052,8.89643687 C19.0593277,9.04920204 19.070164,9.20249581 19.0749214,9.35658247 C19.0913079,10.1848974 19.1045229,11.0134767 19.1187951,11.8417916 C19.1867201,11.8822295 19.2533236,11.925046 19.318077,11.9702412 C19.6899465,12.2292548 20.007106,12.5670297 20.2322893,12.9611004 C20.3366876,13.1439958 20.4209992,13.3379917 20.482581,13.539388 C20.5341195,13.7082754 20.5695356,13.8821845 20.5880366,14.0576795 C20.5967585,14.140141 20.6009873,14.2228667 20.6028373,14.3058568 C20.6112949,15.4415522 20.6031016,16.5772476 20.6031016,17.712943 C20.6020444,17.853286 20.5967585,17.9933648 20.5840721,18.1331793 C20.5568492,18.4347452 20.5005534,18.7334037 20.4162418,19.0241333 C20.3147508,19.3748589 20.1730862,19.7134266 19.9962698,20.0327006 C19.8435046,20.3086293 19.6648381,20.5700216 19.464499,20.8137059 C19.3505858,20.9524632 19.2295366,21.0856702 19.1021442,21.212534 C18.3560264,21.9573303 17.4053408,22.4822293 16.3912232,22.7602724 C16.022261,22.8614992 15.6443125,22.9304814 15.2634568,22.967219 C15.0681394,22.9862486 14.8722934,22.9954991 14.6759188,22.9986707 C14.1800927,23.0013137 13.6840024,22.9991993 13.187912,22.9991993 C13.0169102,22.9981421 12.8461727,22.9925918 12.6756994,22.9799054 C12.2692066,22.9492467 11.8650925,22.8823789 11.4707575,22.7787734 C10.4524112,22.5113022 9.49511801,21.9961823 8.73922115,21.2598436 C8.61050725,21.1343013 8.48787223,21.0029444 8.37210901,20.8655086 C8.16886262,20.6244674 7.98702449,20.3654538 7.83055913,20.0919037 C7.6497782,19.7752727 7.50335622,19.4390837 7.39710778,19.0904725 C7.30883171,18.8013287 7.24804281,18.5039917 7.21659115,18.203483 C7.20152608,18.062347 7.19412569,17.9206824 7.19095409,17.7787536 C7.1822322,16.6211213 7.1822322,15.4632248 7.19068979,14.3055925 C7.19253989,14.2226024 7.19703298,14.140141 7.20575487,14.0576795 C7.22425584,13.8821845 7.25967199,13.7082754 7.31121041,13.539388 C7.37252792,13.3379917 7.45710379,13.1437315 7.56150213,12.9608361 C7.7803422,12.577866 8.08640114,12.2474915 8.4450557,11.9916495 C8.7075052,11.8042611 8.99717757,11.6565176 9.30165071,11.5515907 C9.55220673,11.4651647 9.81280613,11.4075474 10.0763128,11.3792673 C10.1920761,11.3668452 10.3078393,11.360502 10.4241311,11.358652 C12.3582756,11.3483443 14.2926844,11.3464942 16.2268289,11.3536303 Z M17.3265795,14.2659476 L10.4672119,14.2659476 C10.378143,14.2662119 10.289074,14.2802197 10.2074054,14.3166931 C10.1693463,14.3336083 10.1323444,14.3552808 10.1024785,14.3840895 C10.1006284,14.3859396 10.1006284,14.3856753 10.0990426,14.3875254 L10.0977211,14.3888469 C10.0977211,15.5041912 10.0897921,16.6197998 10.0979854,17.7351441 C10.101157,17.8709941 10.1172793,18.0055226 10.1492595,18.1376724 C10.1685534,18.216698 10.192869,18.2946664 10.2222062,18.3707847 C10.401137,18.8354234 10.7515983,19.2183935 11.1594126,19.4953795 C11.2278662,19.5421605 11.2981699,19.5857699 11.3700594,19.6267364 C11.4657358,19.6814464 11.5643196,19.7311347 11.6650177,19.7760656 C11.7810453,19.8278684 11.9002444,19.8730636 12.0212936,19.9119156 C12.172473,19.9605468 12.3270882,19.9991345 12.4832893,20.0279432 C12.7031866,20.0681167 12.9254625,20.0879392 13.1485314,20.0916394 C13.647529,20.0942824 14.1462624,20.0942824 14.6449957,20.0916394 C14.8545853,20.0882035 15.063382,20.0707597 15.2700643,20.0350793 C15.4273226,20.0078564 15.5827307,19.9708545 15.7352316,19.9235448 C15.857338,19.8860143 15.97733,19.8416119 16.0944148,19.7911307 C16.1959058,19.747257 16.2952824,19.6983616 16.3920161,19.6447087 C16.4646985,19.6042709 16.5357951,19.5611901 16.6050416,19.5152019 C17.0181419,19.2411233 17.3749463,18.8607961 17.5612775,18.3964217 C17.5882361,18.3290253 17.6117588,18.2600431 17.6307883,18.1900037 C17.6593327,18.0858697 17.6786266,17.979357 17.6884056,17.871787 C17.6934273,17.8152269 17.6955417,17.7586668 17.695806,17.7021067 L17.695806,14.3888469 C17.6667331,14.3584524 17.6289382,14.3362513 17.5911434,14.3188075 C17.5084176,14.2810126 17.41697,14.2659476 17.3265795,14.2659476 Z M13.9205505,15.2237693 C14.2004438,15.2264123 14.5900214,15.3516903 14.786396,15.5197849 C14.9827706,15.6878794 15.1146561,15.9651297 15.1294569,16.2267863 C15.152451,16.6338077 14.948676,18.3097315 14.5696704,18.6834511 C14.4023687,18.8486383 14.0989528,18.9538296 13.9128858,18.9538296 C13.6914028,18.9535653 13.3938014,18.8512813 13.2566299,18.6538495 C12.8192141,18.0245522 12.814721,16.7680719 12.7896125,16.2431729 C12.7774548,15.9862737 12.9072259,15.6691141 13.1065078,15.5044555 C13.3057897,15.3400611 13.640393,15.2213906 13.9205505,15.2237693 Z" id="Shape" fill="#FFFFFF"></path>
                            </g>
                        </g>
                    </g>
                </g>
            </g>
        </g>
    </g>
</svg>