<?xml version="1.0" encoding="UTF-8"?>
<svg width="118px" height="60px" viewBox="0 0 118 60" version="1.1" xmlns="http://www.w3.org/2000/svg" xmlns:xlink="http://www.w3.org/1999/xlink">
    <!-- Generator: Sketch 42 (36781) - http://www.bohemiancoding.com/sketch -->
    <title>Key</title>
    <desc>Created with Sketch.</desc>
    <defs></defs>
    <g id="Website" stroke="none" stroke-width="1" fill="none" fill-rule="evenodd">
        <g id="Artboard" transform="translate(-1035.000000, -627.000000)">
            <g id="Container">
                <g id="How?" transform="translate(194.000000, 515.000000)">
                    <g id="4" transform="translate(800.000000, 112.000000)">
                        <g id="Key" transform="translate(41.000000, 0.000000)">
                            <rect id="Rectangle" fill="#FFFFFF" opacity="0.5" x="0" y="8" width="82.0985915" height="43" rx="3"></rect>
                            <g transform="translate(11.323944, 21.000000)" stroke="#681348" stroke-width="4" stroke-linecap="round">
                                <path d="M11.3239437,7 L39.6757227,7" id="Path-2"></path>
                                <path d="M30.6690141,7.5 L30.6690141,16.0146932" id="Line"></path>
                                <path d="M37.2746479,7.5 L37.2746479,13" id="Line-Copy-3"></path>
                                <rect id="Rectangle-2" x="0" y="0" width="10.3802817" height="15" rx="3"></rect>
                            </g>
                            <g id="Group" transform="translate(61.338028, 0.000000)">
                                <ellipse id="Oval" fill="#C04848" cx="28.3098592" cy="30" rx="28.3098592" ry="30"></ellipse>
                                <path d="M32.4536577,22.7072605 C32.4758589,21.4174785 32.513918,20.128225 32.5366478,18.8389716 C32.5371764,18.7924548 32.5382336,18.7459381 32.5382336,18.69995 C32.5371764,18.6428613 32.5355906,18.5857725 32.532419,18.5292124 C32.5128608,18.2247393 32.4541863,17.9244949 32.3526953,17.6364084 C32.1555278,17.0792648 31.8071809,16.5807958 31.3636862,16.1912182 C31.064499,15.9295615 30.7230239,15.7170647 30.3567047,15.5632423 C30.0728469,15.4443075 29.7747169,15.3602602 29.4707724,15.3137435 C29.3269934,15.2915423 29.1821572,15.2783273 29.0367925,15.2714555 C28.4717199,15.2534832 27.9061188,15.2460828 27.3405176,15.2413254 C27.0529597,15.2407968 26.7654017,15.2481972 26.4778437,15.2682839 C26.269047,15.2825561 26.060779,15.3037001 25.8530395,15.3317159 C25.4851344,15.3814042 25.1188152,15.4538223 24.7625393,15.5611279 C24.4982397,15.6409464 24.2381689,15.7397944 23.9950133,15.870887 C23.7011121,16.0294668 23.4146113,16.2419637 23.260789,16.5459082 C23.1487259,16.7673913 23.1312822,17.1421681 23.1048522,17.2626887 C23.1048522,17.2642745 23.1053808,17.2663889 23.1048522,17.2679747 C23.0165761,17.634294 22.7596769,18.5804865 22.3500126,18.9838077 C21.9519774,19.3760283 21.422321,19.6540715 20.6357653,19.6889591 C20.1959708,19.6593575 19.4231588,19.4812196 18.9336759,18.9573778 C18.2718697,18.2490548 18.2205956,17.3995959 18.2137238,17.1263101 C18.2105522,16.9920459 18.2264102,16.659557 18.2501971,16.4264448 C18.2967139,15.9697351 18.3892187,15.5177828 18.5303547,15.0811598 C18.6794197,14.6191641 18.8829304,14.1751408 19.136658,13.7612476 C19.3258965,13.4520171 19.5426222,13.1602303 19.7826062,12.8885303 C19.9459434,12.7035206 20.1203811,12.5280257 20.303805,12.3620455 C20.4576274,12.2230239 20.617793,12.0908741 20.7837731,11.9661247 C21.9192042,11.109794 23.2829901,10.6028674 24.6673915,10.3221812 C24.9205905,10.2709071 25.1748467,10.2270334 25.4306887,10.1900314 C25.749434,10.1435147 26.0697651,10.1075699 26.3906249,10.0816686 C26.7738593,10.0499526 27.1576223,10.0330375 27.5419139,10.0261657 L28.9955617,10.0007929 C29.106039,9.9997357 29.106039,9.9997357 29.2165162,10.0007929 C29.5569341,10.0071361 29.8962948,10.0277515 30.2345983,10.0695108 C30.9318206,10.1556725 31.6189996,10.3232384 32.2781628,10.5669226 C33.3279608,10.9559717 34.3042835,11.5400738 35.1431704,12.2827557 C36.2585148,13.2696504 37.1222459,14.5319453 37.6286439,15.9337903 C37.8453696,16.5348076 37.9965489,17.1590833 38.0790104,17.7928737 C38.1186554,18.0984041 38.1403279,18.4049916 38.1498427,18.7131649 C38.1826159,20.3697948 38.2090458,22.0269533 38.2375902,23.6835832 C38.3734402,23.7644589 38.5066472,23.850092 38.636154,23.9404825 C39.3798931,24.4585097 40.0142121,25.1340595 40.4645786,25.9222009 C40.6733753,26.2879915 40.8419984,26.6759833 40.9651621,27.0787759 C41.0682389,27.4165508 41.1390712,27.7643691 41.1760731,28.115359 C41.1935169,28.2802819 41.2019745,28.4457335 41.2056747,28.6117136 C41.2225899,30.8831044 41.2062033,33.1544952 41.2062033,35.4258859 C41.2040889,35.7065721 41.1935169,35.9867297 41.1681442,36.2663587 C41.1136984,36.8694903 41.0011068,37.4668074 40.8324837,38.0482666 C40.6295016,38.7497177 40.3461724,39.4268533 39.9925395,40.0654011 C39.6870092,40.6172587 39.3296761,41.1400433 38.9289979,41.6274118 C38.7011717,41.9049263 38.4590732,42.1713403 38.2042884,42.425068 C36.7120529,43.9146605 34.8106815,44.9644585 32.7824464,45.5205449 C32.0445219,45.7229984 31.2886251,45.8609628 30.5269136,45.9344381 C30.1362788,45.9724972 29.7445868,45.9909982 29.3518376,45.9973414 C28.3601855,46.0026274 27.3680048,45.9983986 26.3758241,45.9983986 C26.0338204,45.9962842 25.6923453,45.9851836 25.3513988,45.9598108 C24.5384133,45.8984933 23.7301851,45.7647577 22.9415151,45.5575468 C20.9048223,45.0226044 18.990236,43.9923646 17.4784423,42.5196872 C17.2210145,42.2686026 16.9757445,42.0058888 16.744218,41.7310172 C16.3377252,41.2489347 15.974049,40.7309075 15.6611183,40.1838073 C15.2995564,39.5505455 15.0067124,38.8781673 14.7942156,38.180945 C14.6176634,37.6026574 14.4960856,37.0079833 14.4331823,36.406966 C14.4030522,36.1246941 14.3882514,35.8413649 14.3819082,35.5575071 C14.3644644,33.2422426 14.3644644,30.9264495 14.3813796,28.611185 C14.3850798,28.4452049 14.394066,28.2802819 14.4115097,28.115359 C14.4485117,27.7643691 14.519344,27.4165508 14.6224208,27.0787759 C14.7450558,26.6759833 14.9142076,26.2874629 15.1230043,25.9216723 C15.5606844,25.155732 16.1728023,24.494983 16.8901114,23.983299 C17.4150104,23.6085222 17.9943551,23.3130352 18.6033014,23.1031813 C19.1044135,22.9303294 19.6256123,22.8150948 20.1526257,22.7585346 C20.3841521,22.7336905 20.6156786,22.7210041 20.8482622,22.7173039 C24.7165512,22.6966885 28.5853687,22.6929883 32.4536577,22.7072605 Z M34.653159,28.5318951 L20.9344239,28.5318951 C20.756286,28.5324237 20.578148,28.5604395 20.4148109,28.6333862 C20.3386926,28.6672165 20.2646887,28.7105617 20.204957,28.768179 C20.2012568,28.7718792 20.2012568,28.7713506 20.1980852,28.7750508 L20.1954422,28.7776938 C20.1954422,31.0083824 20.1795842,33.2395996 20.1959708,35.4702883 C20.202314,35.7419882 20.2345585,36.0110452 20.2985191,36.2753448 C20.3371068,36.433396 20.3857379,36.5893328 20.4444124,36.7415693 C20.8022741,37.6708467 21.5031966,38.436787 22.3188252,38.9907589 C22.4557324,39.084321 22.5963398,39.1715399 22.7401188,39.2534727 C22.9314717,39.3628928 23.1286392,39.4622694 23.3300355,39.5521313 C23.5620905,39.6557367 23.8004888,39.7461272 24.0425872,39.8238313 C24.3449459,39.9210935 24.6541765,39.998269 24.9665786,40.0558863 C25.4063731,40.1362334 25.8509251,40.1758784 26.2970628,40.1832787 C27.2950581,40.1885647 28.2925248,40.1885647 29.2899915,40.1832787 C29.7091706,40.176407 30.126764,40.1415194 30.5401286,40.0701585 C30.8546451,40.0157128 31.1654614,39.9417089 31.4704632,39.8470896 C31.714676,39.7720286 31.9546601,39.6832239 32.1888295,39.5822614 C32.3918116,39.494514 32.5905649,39.3967231 32.7840322,39.2894175 C32.929397,39.2085418 33.0715902,39.1223801 33.2100832,39.0304039 C34.0362837,38.4822465 34.7498926,37.7215923 35.1225551,36.7928435 C35.1764722,36.6580507 35.2235175,36.5200863 35.2615767,36.3800075 C35.3186654,36.1717394 35.3572531,35.9587139 35.3768113,35.743574 C35.3868547,35.6304538 35.3910835,35.5173336 35.3916121,35.4042134 L35.3916121,28.7776938 C35.3334662,28.7169048 35.2578765,28.6725025 35.1822868,28.637615 C35.0168352,28.5620253 34.8339399,28.5318951 34.653159,28.5318951 Z M27.8411011,30.4475386 C28.4008876,30.4528246 29.1800428,30.7033806 29.5727921,31.0395697 C29.9655413,31.3757588 30.2293123,31.9302594 30.2589138,32.4535726 C30.3049019,33.2676154 29.897352,36.6194629 29.1393407,37.3669022 C28.8047374,37.6972767 28.1979055,37.9076592 27.8257717,37.9076592 C27.3828056,37.9071306 26.7876029,37.7025627 26.5132599,37.3076991 C25.6384282,36.0491044 25.629442,33.5361438 25.5792251,32.4863458 C25.5549095,31.9725473 25.8144517,31.3382283 26.2130155,31.008911 C26.6115793,30.6801223 27.2807859,30.4427812 27.8411011,30.4475386 Z" id="Shape" fill="#FFFFFF"></path>
                            </g>
                        </g>
                    </g>
                </g>
            </g>
        </g>
    </g>
</svg>