<?xml version="1.0" encoding="UTF-8"?>
<svg width="14px" height="18px" viewBox="0 0 14 18" version="1.1" xmlns="http://www.w3.org/2000/svg" xmlns:xlink="http://www.w3.org/1999/xlink">
    <!-- Generator: Sketch 42 (36781) - http://www.bohemiancoding.com/sketch -->
    <title>Shape</title>
    <desc>Created with Sketch.</desc>
    <defs></defs>
    <g id="Embed" stroke="none" stroke-width="1" fill="none" fill-rule="evenodd">
        <g id="Form" transform="translate(-46.000000, -363.000000)" fill="#FFFFFF">
            <g id="Container-Copy" transform="translate(10.000000, 130.000000)">
                <g id="This-message-is-secure" transform="translate(15.000000, 226.000000)">
                    <g id="secure" transform="translate(21.000000, 7.000000)">
                        <path d="M9.04244959,6.35363026 C9.05355018,5.70873923 9.07257975,5.06411251 9.08394463,4.41948578 C9.08420893,4.39622741 9.08473753,4.37296905 9.08473753,4.34997498 C9.08420893,4.32143063 9.08341603,4.29288627 9.08183024,4.26460621 C9.07205115,4.11236964 9.04271389,3.96224747 8.99196837,3.81820419 C8.89338462,3.53963241 8.71921118,3.29039788 8.49746382,3.09560908 C8.34787024,2.96478077 8.1771327,2.85853234 7.99397308,2.78162115 C7.85204419,2.72215374 7.70297922,2.6801301 7.55100695,2.65687174 C7.47911745,2.64577116 7.40669936,2.63916367 7.33401697,2.63572777 C7.0514807,2.62674159 6.76868013,2.62304139 6.48587955,2.62066269 C6.34210057,2.62039839 6.19832159,2.62409859 6.0545426,2.63414197 C5.95014426,2.64127806 5.84601022,2.65185005 5.74214048,2.66585793 C5.55818795,2.69070209 5.37502833,2.72691113 5.1968904,2.78056395 C5.0647406,2.82047319 4.9347052,2.86989722 4.81312738,2.93544352 C4.6661768,3.0147334 4.52292642,3.12098184 4.44601523,3.27295411 C4.38998372,3.38369564 4.38126183,3.57108406 4.36804685,3.63134437 C4.36804685,3.63213727 4.36831115,3.63319447 4.36804685,3.63398736 C4.32390882,3.81714699 4.19545921,4.29024327 3.99062702,4.49190387 C3.79160942,4.68801417 3.52678122,4.82703576 3.13350341,4.84447954 C2.91360615,4.82967876 2.52720013,4.74060979 2.2824587,4.47868889 C1.9515556,4.12452742 1.92591854,3.69979797 1.92248264,3.56315507 C1.92089684,3.49602297 1.92882583,3.32977852 1.94071931,3.2132224 C1.96397768,2.98486754 2.01023011,2.75889139 2.0807981,2.54057992 C2.15533059,2.30958206 2.25708594,2.0875704 2.38394975,1.88062381 C2.478569,1.72600854 2.58693184,1.58011516 2.70692386,1.44426517 C2.78859243,1.35176031 2.8758113,1.26401284 2.96752326,1.18102277 C3.04443445,1.11151197 3.12451723,1.04543707 3.2075073,0.983062366 C3.77522285,0.554897012 4.45711582,0.301433695 5.14931647,0.161090607 C5.27591598,0.135453546 5.40304409,0.113516679 5.5309651,0.0950157066 C5.69033775,0.0717573417 5.85050331,0.0537849688 6.01093317,0.0408342884 C6.20255038,0.0249763123 6.39443189,0.0165187251 6.5865777,0.0130828303 L7.3134016,0.000396449402 C7.36864022,-0.000132149801 7.36864022,-0.000132149801 7.42387884,0.000396449402 C7.59408778,0.00356804461 7.76376812,0.0138757291 7.93291987,0.0347553975 C8.28153104,0.0778362325 8.62512052,0.161619206 8.95470213,0.283461322 C9.47960114,0.477985829 9.9677625,0.770036888 10.387206,1.14137783 C10.9448781,1.63482518 11.3767437,2.26597263 11.6299427,2.96689517 C11.7383055,3.26740382 11.8138952,3.57954165 11.8551259,3.89643687 C11.8749484,4.04920204 11.8857847,4.20249581 11.8905421,4.35658247 C11.9069287,5.18489742 11.9201437,6.01347667 11.9344158,6.84179162 C12.0023408,6.88222946 12.0689443,6.925046 12.1336977,6.97024123 C12.5055673,7.22925484 12.8227268,7.56702973 13.04791,7.96110043 C13.1523084,8.14399576 13.23662,8.33799166 13.2982018,8.53938796 C13.3497402,8.70827541 13.3851563,8.88218454 13.4036573,9.05767948 C13.4123792,9.14014095 13.416608,9.22286673 13.4184581,9.3058568 C13.4269157,10.4415522 13.4187224,11.5772476 13.4187224,12.712943 C13.4176652,12.853286 13.4123792,12.9933648 13.3996928,13.1331793 C13.37247,13.4347452 13.3161741,13.7334037 13.2318626,14.0241333 C13.1303715,14.3748589 12.9887069,14.7134266 12.8118905,15.0327006 C12.6591253,15.3086293 12.4804588,15.5700216 12.2801197,15.8137059 C12.1662066,15.9524632 12.0451574,16.0856702 11.917765,16.212534 C11.1716472,16.9573303 10.2209615,17.4822293 9.20684395,17.7602724 C8.8378817,17.8614992 8.45993327,17.9304814 8.07907755,17.967219 C7.88376014,17.9862486 7.68791414,17.9954991 7.49153954,17.9986707 C6.99571348,18.0013137 6.49962313,17.9991993 6.00353278,17.9991993 C5.83253094,17.9981421 5.6617934,17.9925918 5.49132016,17.9799054 C5.08482737,17.9492467 4.68071328,17.8823789 4.28637827,17.7787734 C3.26803191,17.5113022 2.31073876,16.9961823 1.5548419,16.2598436 C1.42612799,16.1343013 1.30349298,16.0029444 1.18772975,15.8655086 C0.984483358,15.6244674 0.802645232,15.3654538 0.646179868,15.0919037 C0.465398941,14.7752727 0.318976962,14.4390837 0.212728523,14.0904725 C0.124452456,13.8013287 0.0636635476,13.5039917 0.0322118951,13.203483 C0.0171468178,13.062347 0.00974642901,12.9206824 0.00657483379,12.7787536 C-0.00214705304,11.6211213 -0.00214705304,10.4632248 0.00631053419,9.3055925 C0.0081606314,9.22260243 0.0126537246,9.14014095 0.0213756115,9.05767948 C0.0398765835,8.88218454 0.0752927301,8.70827541 0.126831152,8.53938796 C0.18814866,8.33799166 0.272724532,8.14373146 0.377122874,7.96083613 C0.595962944,7.57786601 0.902021882,7.24749151 1.26067644,6.9916495 C1.52312594,6.80426108 1.81279831,6.6565176 2.11727145,6.55159066 C2.36782747,6.46516469 2.62842688,6.40754738 2.89193358,6.37926732 C3.0076968,6.36684524 3.12346003,6.36050205 3.23975185,6.35865195 C5.17389633,6.34834427 7.10830511,6.34649417 9.04244959,6.35363026 Z M10.1422002,9.26594756 L3.28283269,9.26594756 C3.19376372,9.26621186 3.10469476,9.28021974 3.02302618,9.31669309 C2.98496704,9.33360826 2.94796509,9.35528083 2.91809924,9.38408949 C2.91624914,9.38593958 2.91624914,9.38567528 2.91466334,9.38752538 L2.91334185,9.38884688 C2.91334185,10.5041912 2.90541286,11.6197998 2.91360615,12.7351441 C2.91677774,12.8709941 2.93290002,13.0055226 2.96488027,13.1376724 C2.98417414,13.216698 3.0084897,13.2946664 3.03782696,13.3707847 C3.21675779,13.8354234 3.56721906,14.2183935 3.97503334,14.4953795 C4.04348694,14.5421605 4.11379063,14.5857699 4.18568013,14.6267364 C4.28135658,14.6814464 4.37994033,14.7311347 4.48063848,14.7760656 C4.59666601,14.8278684 4.71586513,14.8730636 4.83691434,14.9119156 C4.98809371,14.9605468 5.14270898,14.9991345 5.29891005,15.0279432 C5.51880731,15.0681167 5.74108328,15.0879392 5.96415214,15.0916394 C6.46314979,15.0942824 6.96188314,15.0942824 7.46061648,15.0916394 C7.67020607,15.0882035 7.87900275,15.0707597 8.08568504,15.0350793 C8.2429433,15.0078564 8.39835147,14.9708545 8.55085234,14.9235448 C8.67295875,14.8860143 8.79295077,14.8416119 8.91003549,14.7911307 C9.01152654,14.747257 9.11090319,14.6983616 9.20763685,14.6447087 C9.28031924,14.6042709 9.35141583,14.5611901 9.42066232,14.5152019 C9.8337626,14.2411233 10.1905671,13.8607961 10.3768983,13.3964217 C10.4038568,13.3290253 10.4273795,13.2600431 10.4464091,13.1900037 C10.4749534,13.0858697 10.4942473,12.979357 10.5040264,12.871787 C10.5090481,12.8152269 10.5111625,12.7586668 10.5114268,12.7021067 L10.5114268,9.38884688 C10.4823538,9.35845242 10.444559,9.33625126 10.4067641,9.31880748 C10.3240384,9.28101264 10.2325907,9.26594756 10.1422002,9.26594756 Z M6.73617128,10.2237693 C7.01606455,10.2264123 7.40564217,10.3516903 7.60201677,10.5197849 C7.79839137,10.6878794 7.93027687,10.9651297 7.94507765,11.2267863 C7.96807172,11.6338077 7.76429672,13.3097315 7.3852911,13.6834511 C7.21798945,13.8486383 6.91457351,13.9538296 6.72850659,13.9538296 C6.50702352,13.9535653 6.20942217,13.8512813 6.07225068,13.6538495 C5.63483484,13.0245522 5.63034175,11.7680719 5.60523328,11.2431729 C5.5930755,10.9862737 5.72284661,10.6691141 5.9221285,10.5044555 C6.1214104,10.3400611 6.4560137,10.2213906 6.73617128,10.2237693 Z" id="Shape"></path>
                    </g>
                </g>
            </g>
        </g>
    </g>
</svg>