<?xml version="1.0" encoding="UTF-8" standalone="no"?><!DOCTYPE svg PUBLIC "-//W3C//DTD SVG 1.1//EN" "http://www.w3.org/Graphics/SVG/1.1/DTD/svg11.dtd"><svg width="338px" height="75px" version="1.1" xmlns="http://www.w3.org/2000/svg" xmlns:xlink="http://www.w3.org/1999/xlink" xml:space="preserve" style="fill-rule:evenodd;clip-rule:evenodd;stroke-linejoin:round;stroke-miterlimit:1.41421;"><path d="M221.152,30.622C221.194,28.182 221.266,25.743 221.309,23.304C221.31,23.216 221.312,23.128 221.312,23.041C221.31,22.933 221.307,22.825 221.301,22.718C221.264,22.142 221.153,21.574 220.961,21.029C220.588,19.975 219.929,19.032 219.09,18.295C218.524,17.8 217.878,17.398 217.185,17.107C216.648,16.882 216.084,16.723 215.509,16.635C215.237,16.593 214.963,16.568 214.688,16.555C213.619,16.521 212.549,16.507 211.479,16.498C210.935,16.497 210.391,16.511 209.847,16.549C209.452,16.576 209.058,16.616 208.665,16.669C207.969,16.763 207.276,16.9 206.602,17.103C206.102,17.254 205.61,17.441 205.15,17.689C204.594,17.989 204.052,18.391 203.761,18.966C203.549,19.385 203.516,20.094 203.466,20.322C203.466,20.325 203.467,20.329 203.466,20.332C203.299,21.025 202.813,22.815 202.038,23.578C201.285,24.32 200.283,24.846 198.795,24.912C197.963,24.856 196.501,24.519 195.575,23.528C194.323,22.188 194.226,20.581 194.213,20.064C194.207,19.81 194.237,19.181 194.282,18.74C194.37,17.876 194.545,17.021 194.812,16.195C195.094,15.321 195.479,14.481 195.959,13.698C196.317,13.113 196.727,12.561 197.181,12.047C197.49,11.697 197.82,11.365 198.167,11.051C198.458,10.788 198.761,10.538 199.075,10.302C201.223,8.682 203.803,7.723 206.422,7.192C206.901,7.095 207.382,7.012 207.866,6.942C208.469,6.854 209.075,6.786 209.682,6.737C210.407,6.677 211.133,6.645 211.86,6.632L214.61,6.584C214.819,6.582 214.819,6.582 215.028,6.584C215.672,6.596 216.314,6.635 216.954,6.714C218.273,6.877 219.573,7.194 220.82,7.655C222.806,8.391 224.653,9.496 226.24,10.901C228.35,12.768 229.984,15.156 230.942,17.808C231.352,18.945 231.638,20.126 231.794,21.325C231.869,21.903 231.91,22.483 231.928,23.066C231.99,26.2 232.04,29.335 232.094,32.469C232.351,32.622 232.603,32.784 232.848,32.955C234.255,33.935 235.455,35.213 236.307,36.704C236.702,37.396 237.021,38.13 237.254,38.892C237.449,39.531 237.583,40.189 237.653,40.853C237.686,41.165 237.702,41.478 237.709,41.792C237.741,46.089 237.71,50.386 237.71,54.683C237.706,55.214 237.686,55.744 237.638,56.273C237.535,57.414 237.322,58.544 237.003,59.644C236.619,60.971 236.083,62.252 235.414,63.46C234.836,64.504 234.16,65.493 233.402,66.415C232.971,66.94 232.513,67.444 232.031,67.924C229.208,70.742 225.611,72.728 221.774,73.78C220.378,74.163 218.948,74.424 217.507,74.563C216.768,74.635 216.027,74.67 215.284,74.682C213.408,74.692 211.531,74.684 209.654,74.684C209.007,74.68 208.361,74.659 207.716,74.611C206.178,74.495 204.649,74.242 203.157,73.85C199.304,72.838 195.682,70.889 192.822,68.103C192.335,67.628 191.871,67.131 191.433,66.611C190.664,65.699 189.976,64.719 189.384,63.684C188.7,62.486 188.146,61.214 187.744,59.895C187.41,58.801 187.18,57.676 187.061,56.539C187.004,56.005 186.976,55.469 186.964,54.932C186.931,50.552 186.931,46.171 186.963,41.791C186.97,41.477 186.987,41.165 187.02,40.853C187.09,40.189 187.224,39.531 187.419,38.892C187.651,38.13 187.971,37.395 188.366,36.703C189.194,35.254 190.352,34.004 191.709,33.036C192.702,32.327 193.798,31.768 194.95,31.371C195.898,31.044 196.884,30.826 197.881,30.719C198.319,30.672 198.757,30.648 199.197,30.641C206.515,30.602 213.834,30.595 221.152,30.622ZM0.82,68.837C0.82,72.237 3.62,74.337 7.02,74.337C10.42,74.337 13.22,72.237 13.22,68.837L13.22,26.337C13.22,22.937 10.42,20.837 7.02,20.837C3.62,20.837 0.82,22.937 0.82,26.337L0.82,68.837ZM28.02,68.837C28.02,72.237 30.82,74.337 34.22,74.337C37.62,74.337 40.42,72.237 40.42,68.837L40.42,34.437C41.82,33.537 46.22,31.037 52.62,31.237C59.42,31.537 63.42,35.537 63.42,43.537L63.42,68.837C63.42,72.237 66.22,74.337 69.62,74.337C73.02,74.337 75.82,72.237 75.82,68.837L75.82,39.537C75.82,28.737 67.62,20.837 55.32,20.837C47.72,20.837 41.92,24.537 40.32,25.537C39.92,22.637 37.32,20.837 34.22,20.837C30.82,20.837 28.02,22.937 28.02,26.337L28.02,68.837ZM90.32,68.837C90.32,72.237 93.12,74.337 96.52,74.337C99.92,74.337 102.72,72.237 102.72,68.837L102.72,26.337C102.72,22.937 99.92,20.837 96.52,20.837C93.12,20.837 90.32,22.937 90.32,26.337L90.32,68.837ZM133.62,31.837L133.62,55.037C133.62,61.537 136.52,62.537 138.72,62.537C140.82,62.537 144.12,61.037 144.12,61.037C147.12,60.037 150.02,62.737 150.52,65.837C151.12,69.037 149.62,72.037 146.22,72.737C146.22,72.737 141.32,74.337 137.82,74.337C125.12,74.337 121.22,66.037 121.22,55.237L121.22,31.837L117.12,31.837C114.42,31.837 112.72,29.637 112.72,26.837C112.72,24.137 114.42,21.837 117.12,21.837L121.22,21.837L121.22,12.337C121.22,8.937 124.02,6.837 127.42,6.837C130.82,6.837 133.62,8.937 133.62,12.337L133.62,21.837L142.62,21.837C145.32,21.837 147.02,24.137 147.02,26.837C147.02,29.637 145.32,31.837 142.62,31.837L133.62,31.837ZM160.42,68.837C160.42,72.237 163.22,74.337 166.62,74.337C170.02,74.337 172.82,72.237 172.82,68.837L172.82,26.337C172.82,22.937 170.02,20.837 166.62,20.837C163.22,20.837 160.42,22.937 160.42,26.337L160.42,68.837ZM254.72,21.837L254.72,12.337C254.72,8.937 257.52,6.837 260.92,6.837C264.32,6.837 267.12,8.937 267.12,12.337L267.12,21.837L276.12,21.837C278.82,21.837 280.52,24.137 280.52,26.837C280.52,29.637 278.82,31.837 276.12,31.837L267.12,31.837L267.12,55.037C267.12,61.537 270.02,62.537 272.22,62.537C274.32,62.537 277.62,61.037 277.62,61.037C280.62,60.037 283.52,62.737 284.02,65.837C284.62,69.037 283.12,72.037 279.72,72.737C279.72,72.737 274.82,74.337 271.32,74.337C258.62,74.337 254.72,66.037 254.72,55.237L254.72,31.837L250.62,31.837C247.92,31.837 246.22,29.637 246.22,26.837C246.22,24.137 247.92,21.837 250.62,21.837L254.72,21.837ZM302.12,49.437C302.72,57.037 306.42,63.037 315.02,63.037C318.52,63.037 322.22,62.137 324.52,58.937C326.32,56.537 329.02,54.937 332.32,56.737C335.32,58.337 336.22,61.337 334.52,64.437C330.92,70.937 322.82,74.337 315.32,74.337C298.12,74.337 289.72,61.537 289.72,47.537C289.72,30.437 300.92,20.937 315.22,20.837C331.02,20.737 337.82,33.137 337.72,43.637C337.72,46.437 336.12,49.437 332.52,49.437L302.12,49.437ZM225.313,41.641L199.36,41.641C199.023,41.642 198.686,41.695 198.377,41.833C198.233,41.897 198.093,41.979 197.98,42.088C197.973,42.095 197.973,42.094 197.967,42.101L197.962,42.106C197.962,46.326 197.932,50.547 197.963,54.767C197.975,55.281 198.036,55.79 198.157,56.29C198.23,56.589 198.322,56.884 198.433,57.172C199.11,58.93 200.436,60.379 201.979,61.427C202.238,61.604 202.504,61.769 202.776,61.924C203.138,62.131 203.511,62.319 203.892,62.489C204.331,62.685 204.782,62.856 205.24,63.003C205.812,63.187 206.397,63.333 206.988,63.442C207.82,63.594 208.661,63.669 209.505,63.683C211.393,63.693 213.28,63.693 215.167,63.683C215.96,63.67 216.75,63.604 217.532,63.469C218.127,63.366 218.715,63.226 219.292,63.047C219.754,62.905 220.208,62.737 220.651,62.546C221.035,62.38 221.411,62.195 221.777,61.992C222.052,61.839 222.321,61.676 222.583,61.502C224.146,60.465 225.496,59.026 226.201,57.269C226.303,57.014 226.392,56.753 226.464,56.488C226.572,56.094 226.645,55.691 226.682,55.284C226.701,55.07 226.709,54.856 226.71,54.642L226.71,42.106C226.6,41.991 226.457,41.907 226.314,41.841C226.001,41.698 225.655,41.641 225.313,41.641ZM212.426,45.265C213.485,45.275 214.959,45.749 215.702,46.385C216.445,47.021 216.944,48.07 217,49.06C217.087,50.6 216.316,56.941 214.882,58.355C214.249,58.98 213.101,59.378 212.397,59.378C211.559,59.377 210.433,58.99 209.914,58.243C208.259,55.862 208.242,51.108 208.147,49.122C208.101,48.15 208.592,46.95 209.346,46.327C210.1,45.705 211.366,45.256 212.426,45.265ZM325.42,40.437C325.419,40.419 324.91,31.837 315.22,31.837C309.42,31.837 304.92,34.537 303.02,40.437L325.42,40.437ZM0.62,7.437C0.62,11.037 3.62,14.037 7.22,14.037C10.82,14.037 13.82,11.037 13.82,7.437C13.82,3.837 10.82,0.837 7.22,0.837C3.62,0.837 0.62,3.837 0.62,7.437ZM90.12,7.437C90.12,11.037 93.12,14.037 96.72,14.037C100.32,14.037 103.32,11.037 103.32,7.437C103.32,3.837 100.32,0.837 96.72,0.837C93.12,0.837 90.12,3.837 90.12,7.437ZM160.22,7.437C160.22,11.037 163.22,14.037 166.82,14.037C170.42,14.037 173.42,11.037 173.42,7.437C173.42,3.837 170.42,0.837 166.82,0.837C163.22,0.837 160.22,3.837 160.22,7.437Z" style="fill:#fff;"/></svg>